<svg xmlns="http://www.w3.org/2000/svg" viewBox="0 0 200 200"><g fill="#808184"><path d="M186 35.5h9s-1.1 62.7-97.9 87.6c0 0 90.4-28.6 88.9-87.6z"/><path d="M183.7 75.8l13.3 14-13.3-4.3 6.6 19-11.3-7.7s17.5 28-15 49.3c.5-2.5 0-15 0-15s-20 38-71.8 34.5l7.5-14.5s-27.3 32.8-96.6-2.5c0 0 2.3-15.3 33.2-37 0 0 4.8 10.2 23.3 7.7 0 0-12.3-1.3-15.3-13.5 0 0 25.5-14.2 38-13.1s9.6 9.4 29.6 9.4c0 0-18.5-6.6-19.5-13.3 0 0 18.5-14.5 50.1-9.5L127.1 72s27.8-3 26.8-3-15-5-15-5 15.5 1 15.5 0-4-9.7-4-9.7l10.3 9.7 2.3-9.7 10.3 12.5s-17 37.8-103.1 62.8c-.1 0 67.5 2 113.5-53.8z"/></g></svg>
